<mxfile host="Electron" agent="Mozilla/5.0 (Windows NT 10.0; Win64; x64) AppleWebKit/537.36 (KHTML, like Gecko) draw.io/26.0.4 Chrome/128.0.6613.186 Electron/32.2.5 Safari/537.36" version="26.0.4">
  <diagram name="Page-1" id="8aO0hHHxm1kotSSlC4aE">
    <mxGraphModel dx="1434" dy="844" grid="1" gridSize="10" guides="1" tooltips="1" connect="1" arrows="1" fold="1" page="1" pageScale="1" pageWidth="827" pageHeight="1169" math="0" shadow="0">
      <root>
        <mxCell id="0" />
        <mxCell id="1" parent="0" />
        <mxCell id="-bIPETNj9ZMwLu_EPxhO-1" value="" style="triangle;whiteSpace=wrap;html=1;" parent="1" vertex="1">
          <mxGeometry x="270" y="220" width="80" height="80" as="geometry" />
        </mxCell>
        <mxCell id="-bIPETNj9ZMwLu_EPxhO-2" value="" style="verticalLabelPosition=bottom;shadow=0;dashed=0;align=center;html=1;verticalAlign=top;shape=mxgraph.electrical.opto_electronics.photodiode;pointerEvents=1;rotation=-90;" parent="1" vertex="1">
          <mxGeometry x="127" y="155" width="80" height="40" as="geometry" />
        </mxCell>
        <mxCell id="-bIPETNj9ZMwLu_EPxhO-3" value="" style="endArrow=none;html=1;rounded=0;exitX=0;exitY=0.57;exitDx=0;exitDy=0;exitPerimeter=0;" parent="1" source="-bIPETNj9ZMwLu_EPxhO-2" edge="1">
          <mxGeometry width="50" height="50" relative="1" as="geometry">
            <mxPoint x="232" y="250" as="sourcePoint" />
            <mxPoint x="170" y="240" as="targetPoint" />
          </mxGeometry>
        </mxCell>
        <mxCell id="-bIPETNj9ZMwLu_EPxhO-4" value="" style="endArrow=none;html=1;rounded=0;entryX=0;entryY=0.25;entryDx=0;entryDy=0;" parent="1" target="-bIPETNj9ZMwLu_EPxhO-1" edge="1">
          <mxGeometry width="50" height="50" relative="1" as="geometry">
            <mxPoint x="170" y="240" as="sourcePoint" />
            <mxPoint x="280" y="200" as="targetPoint" />
          </mxGeometry>
        </mxCell>
        <mxCell id="-bIPETNj9ZMwLu_EPxhO-5" value="" style="endArrow=classic;html=1;rounded=0;exitX=1;exitY=0.57;exitDx=0;exitDy=0;exitPerimeter=0;" parent="1" source="-bIPETNj9ZMwLu_EPxhO-2" edge="1">
          <mxGeometry width="50" height="50" relative="1" as="geometry">
            <mxPoint x="232" y="250" as="sourcePoint" />
            <mxPoint x="170" y="110" as="targetPoint" />
          </mxGeometry>
        </mxCell>
        <mxCell id="-bIPETNj9ZMwLu_EPxhO-6" value="" style="endArrow=classic;html=1;rounded=0;" parent="1" edge="1">
          <mxGeometry width="50" height="50" relative="1" as="geometry">
            <mxPoint x="240" y="280" as="sourcePoint" />
            <mxPoint x="240" y="320" as="targetPoint" />
          </mxGeometry>
        </mxCell>
        <mxCell id="-bIPETNj9ZMwLu_EPxhO-7" value="" style="endArrow=none;html=1;rounded=0;entryX=0;entryY=0.75;entryDx=0;entryDy=0;" parent="1" target="-bIPETNj9ZMwLu_EPxhO-1" edge="1">
          <mxGeometry width="50" height="50" relative="1" as="geometry">
            <mxPoint x="240" y="280" as="sourcePoint" />
            <mxPoint x="280" y="200" as="targetPoint" />
          </mxGeometry>
        </mxCell>
        <mxCell id="-bIPETNj9ZMwLu_EPxhO-8" value="" style="rounded=0;whiteSpace=wrap;html=1;" parent="1" vertex="1">
          <mxGeometry x="285" y="167" width="50" height="25" as="geometry" />
        </mxCell>
        <mxCell id="-bIPETNj9ZMwLu_EPxhO-9" value="" style="endArrow=none;html=1;rounded=0;entryX=0;entryY=0.5;entryDx=0;entryDy=0;" parent="1" target="-bIPETNj9ZMwLu_EPxhO-8" edge="1">
          <mxGeometry width="50" height="50" relative="1" as="geometry">
            <mxPoint x="240" y="180" as="sourcePoint" />
            <mxPoint x="280" y="200" as="targetPoint" />
          </mxGeometry>
        </mxCell>
        <mxCell id="-bIPETNj9ZMwLu_EPxhO-10" value="" style="endArrow=none;html=1;rounded=0;" parent="1" edge="1">
          <mxGeometry width="50" height="50" relative="1" as="geometry">
            <mxPoint x="240" y="180" as="sourcePoint" />
            <mxPoint x="240" y="240" as="targetPoint" />
          </mxGeometry>
        </mxCell>
        <mxCell id="-bIPETNj9ZMwLu_EPxhO-11" value="" style="endArrow=none;html=1;rounded=0;entryX=0;entryY=0.5;entryDx=0;entryDy=0;exitX=1;exitY=0.5;exitDx=0;exitDy=0;" parent="1" source="-bIPETNj9ZMwLu_EPxhO-8" edge="1">
          <mxGeometry width="50" height="50" relative="1" as="geometry">
            <mxPoint x="340" y="179" as="sourcePoint" />
            <mxPoint x="380" y="179.25" as="targetPoint" />
          </mxGeometry>
        </mxCell>
        <mxCell id="-bIPETNj9ZMwLu_EPxhO-12" value="" style="endArrow=none;html=1;rounded=0;" parent="1" edge="1">
          <mxGeometry width="50" height="50" relative="1" as="geometry">
            <mxPoint x="380" y="180" as="sourcePoint" />
            <mxPoint x="380" y="260" as="targetPoint" />
          </mxGeometry>
        </mxCell>
        <mxCell id="-bIPETNj9ZMwLu_EPxhO-13" value="" style="endArrow=none;html=1;rounded=0;entryX=1;entryY=0.5;entryDx=0;entryDy=0;" parent="1" target="-bIPETNj9ZMwLu_EPxhO-1" edge="1">
          <mxGeometry width="50" height="50" relative="1" as="geometry">
            <mxPoint x="420" y="260" as="sourcePoint" />
            <mxPoint x="260" y="260" as="targetPoint" />
          </mxGeometry>
        </mxCell>
        <mxCell id="-bIPETNj9ZMwLu_EPxhO-14" value="" style="ellipse;whiteSpace=wrap;html=1;aspect=fixed;" parent="1" vertex="1">
          <mxGeometry x="420" y="255" width="10" height="10" as="geometry" />
        </mxCell>
        <mxCell id="-bIPETNj9ZMwLu_EPxhO-15" value="V&lt;sub&gt;out&lt;/sub&gt;" style="text;html=1;strokeColor=none;fillColor=none;align=center;verticalAlign=middle;whiteSpace=wrap;rounded=0;fontSize=16;" parent="1" vertex="1">
          <mxGeometry x="430" y="245" width="50" height="30" as="geometry" />
        </mxCell>
        <mxCell id="-bIPETNj9ZMwLu_EPxhO-16" value="R&lt;sub&gt;f&lt;/sub&gt;" style="text;html=1;strokeColor=none;fillColor=none;align=center;verticalAlign=middle;whiteSpace=wrap;rounded=0;fontSize=16;" parent="1" vertex="1">
          <mxGeometry x="280" y="137" width="60" height="30" as="geometry" />
        </mxCell>
        <mxCell id="-bIPETNj9ZMwLu_EPxhO-19" value="+" style="text;html=1;strokeColor=none;fillColor=none;align=center;verticalAlign=middle;whiteSpace=wrap;rounded=0;fontSize=16;" parent="1" vertex="1">
          <mxGeometry x="250" y="224" width="60" height="30" as="geometry" />
        </mxCell>
        <mxCell id="-bIPETNj9ZMwLu_EPxhO-20" value="â€“" style="text;html=1;strokeColor=none;fillColor=none;align=center;verticalAlign=middle;whiteSpace=wrap;rounded=0;fontSize=16;" parent="1" vertex="1">
          <mxGeometry x="250" y="264" width="60" height="30" as="geometry" />
        </mxCell>
        <mxCell id="-bIPETNj9ZMwLu_EPxhO-23" value="" style="triangle;whiteSpace=wrap;html=1;fontSize=16;fillColor=#FF0000;strokeColor=none;" parent="1" vertex="1">
          <mxGeometry x="193" y="232" width="13" height="15" as="geometry" />
        </mxCell>
        <mxCell id="-bIPETNj9ZMwLu_EPxhO-26" value="I&lt;sub&gt;d&lt;/sub&gt;" style="text;html=1;strokeColor=none;fillColor=none;align=center;verticalAlign=middle;whiteSpace=wrap;rounded=0;fontSize=16;fontColor=#FF0000;" parent="1" vertex="1">
          <mxGeometry x="169.5" y="202" width="60" height="30" as="geometry" />
        </mxCell>
        <mxCell id="-bIPETNj9ZMwLu_EPxhO-27" value="" style="ellipse;whiteSpace=wrap;html=1;aspect=fixed;fontSize=16;fontColor=#FF0000;fillColor=#000000;" parent="1" vertex="1">
          <mxGeometry x="237.5" y="237" width="5" height="5" as="geometry" />
        </mxCell>
        <mxCell id="-bIPETNj9ZMwLu_EPxhO-30" value="" style="ellipse;whiteSpace=wrap;html=1;aspect=fixed;fontSize=16;fontColor=#FF0000;fillColor=#000000;" parent="1" vertex="1">
          <mxGeometry x="378" y="257" width="5" height="5" as="geometry" />
        </mxCell>
        <mxCell id="-bIPETNj9ZMwLu_EPxhO-31" value="" style="endArrow=none;html=1;rounded=0;fontSize=16;fontColor=#FF0000;" parent="1" edge="1">
          <mxGeometry width="50" height="50" relative="1" as="geometry">
            <mxPoint x="170" y="240" as="sourcePoint" />
            <mxPoint x="170" y="120" as="targetPoint" />
          </mxGeometry>
        </mxCell>
      </root>
    </mxGraphModel>
  </diagram>
</mxfile>
